<?xml version="1.0" standalone="no"?><!DOCTYPE svg PUBLIC "-//W3C//DTD SVG 1.1//EN" "http://www.w3.org/Graphics/SVG/1.1/DTD/svg11.dtd"><svg t="1608616035414" class="icon" viewBox="0 0 3872 1024" version="1.1" xmlns="http://www.w3.org/2000/svg" p-id="12009" xmlns:xlink="http://www.w3.org/1999/xlink" width="484" height="128"><defs><style type="text/css"></style></defs><path d="M2965.469214 289.154989h28.26327c19.566879 0 28.26327 0 28.26327 2.174098s-2.174098 10.870488-8.696391 28.26327c-4.348195 15.218684-10.870488 32.611465-15.218684 47.830148-4.348195 13.044586-8.696391 28.26327-17.392781 45.656051l-8.696391 23.915075 6.522293 17.392781c4.348195 13.044586 8.696391 23.915074 10.870489 34.785563 4.348195 10.870488 6.522293 23.915074 10.870488 41.307855 4.348195 17.392781 6.522293 28.26327 6.522293 28.26327v4.348195h-56.526539v-4.348195-6.522293c0-2.174098-2.174098-6.522293-2.174098-10.870489s-2.174098-8.696391-2.174098-13.044586c-2.174098-15.218684-4.348195-23.915074-4.348195-26.089171 0 0-2.174098 4.348195-6.522293 10.870488-4.348195 6.522293-8.696391 15.218684-15.218684 21.740976l-8.69639 8.696391-13.044586-2.174098h-10.870488l13.044586-28.263269c8.696391-19.566879 17.392781-34.785563 21.740976-47.830149 6.522293-13.044586 8.696391-19.566879 8.696391-21.740976s-2.174098-13.044586-8.696391-30.437368c-4.348195-17.392781-8.696391-30.437367-13.044586-39.133758-4.348195-8.696391-6.522293-17.392781-8.69639-23.915074-4.348195-8.696391-6.522293-15.218684-10.870489-19.566879-4.348195-6.522293-4.348195-8.696391-4.348195-8.696391s2.174098-2.174098 6.522293-2.174097c4.348195-2.174098 8.696391 0 10.870488 2.174097 2.174098 2.174098 6.522293 4.348195 10.870488 8.696391s8.696391 10.870488 15.218684 17.392781c4.348195 6.522293 8.696391 13.044586 15.218684 21.740977l6.522293 13.044586v-6.522293-4.348195c0-2.174098 2.174098-4.348195 2.174097-6.522293 0-2.174098 0-4.348195 2.174098-6.522293 2.174098-6.522293 4.348195-21.740977 6.522293-41.307856 2.174098-19.566879 4.348195-28.26327 4.348195-28.26327zM3145.919321 289.154989h28.263269c19.566879 0 28.26327 0 28.26327 2.174098s-2.174098 10.870488-8.696391 28.26327c-4.348195 15.218684-10.870488 32.611465-15.218683 47.830148-4.348195 13.044586-8.696391 28.26327-17.392782 45.656051l-8.69639 23.915075 6.522293 17.392781c4.348195 13.044586 8.696391 23.915074 10.870488 34.785563s6.522293 23.915074 10.870488 41.307855c4.348195 17.392781 6.522293 28.26327 6.522293 28.26327v4.348195H3130.700637v-4.348195-6.522293c0-2.174098-2.174098-6.522293-2.174098-10.870489s-2.174098-8.696391-2.174097-13.044586c-2.174098-15.218684-4.348195-23.915074-4.348196-26.089171 0 0-2.174098 4.348195-6.522293 10.870488-4.348195 6.522293-8.696391 15.218684-15.218683 21.740976l-8.696391 8.696391-13.044586-2.174098h-10.870488l13.044586-28.263269c8.696391-19.566879 17.392781-34.785563 21.740976-47.830149 6.522293-13.044586 8.696391-19.566879 8.696391-21.740976s-2.174098-13.044586-8.696391-30.437368c-4.348195-17.392781-8.696391-30.437367-13.044586-39.133758-4.348195-8.696391-6.522293-17.392781-8.69639-23.915074-4.348195-8.696391-6.522293-15.218684-10.870489-19.566879-4.348195-6.522293-4.348195-8.696391-4.348195-8.696391s2.174098-2.174098 6.522293-2.174097c4.348195-2.174098 8.696391 0 10.870488 2.174097 2.174098 2.174098 6.522293 4.348195 10.870489 8.696391s8.696391 10.870488 15.218683 17.392781c4.348195 6.522293 8.696391 13.044586 15.218684 21.740977l6.522293 13.044586v-6.522293-4.348195c0-2.174098 2.174098-4.348195 2.174098-6.522293 0-2.174098 0-4.348195 2.174097-6.522293 2.174098-6.522293 4.348195-21.740977 6.522293-41.307856 2.174098-19.566879 4.348195-28.26327 4.348196-28.26327zM3663.354565 297.85138c17.392781 0 23.915074 0 23.915074 2.174098 0 0-2.174098 6.522293-4.348195 15.218683l-4.348196 15.218684v97.834395c2.174098 8.696391 4.348195 15.218684 6.522293 23.915074 2.174098 8.696391 4.348195 17.392781 8.696391 23.915075 2.174098 8.696391 6.522293 17.392781 13.044586 26.089172 4.348195 10.870488 8.696391 17.392781 13.044586 19.566878 2.174098 2.174098 4.348195 2.174098 4.348195 2.174098 2.174098-2.174098 4.348195-8.696391 8.696391-17.392781 6.522293-10.870488 10.870488-21.740977 13.044586-32.611465 4.348195-8.696391 6.522293-19.566879 8.696391-28.26327 2.174098-8.696391 4.348195-17.392781 4.348195-23.915074v-93.4862l-4.348195-15.218683c-2.174098-10.870488-4.348195-17.392781-4.348196-17.392782h47.830149l2.174098 15.218684c2.174098 8.696391 4.348195 17.392781 6.522293 28.26327 2.174098 8.696391 6.522293 21.740977 13.044586 36.95966s13.044586 28.26327 17.392781 41.307856l13.044586 26.089172c2.174098 4.348195 4.348195 6.522293 4.348195 8.69639s0 2.174098-2.174097 2.174098l-8.696391-4.348195c-4.348195-2.174098-8.696391-4.348195-15.218684-8.696391s-13.044586-8.696391-17.392781-13.044586c-6.522293-4.348195-8.696391-8.696391-8.696391-10.870488l-2.174097-2.174098s0 4.348195-2.174098 15.218684c0 8.696391-2.174098 17.392781-2.174098 28.263269-2.174098 8.696391-2.174098 15.218684-4.348195 23.915075-2.174098 8.696391-6.522293 15.218684-8.696391 21.740976-2.174098 6.522293-6.522293 15.218684-10.870488 23.915074-4.348195 8.696391-10.870488 17.392781-15.218684 26.089172l-8.69639 10.870489 13.044586 13.044586c8.696391 8.696391 19.566879 17.392781 28.263269 26.089172 10.870488 10.870488 21.740977 17.392781 30.437368 23.915074 8.696391 6.522293 17.392781 13.044586 23.915074 17.392781l10.870488 6.522293v39.133758l-10.870488-4.348195c-6.522293-4.348195-13.044586-6.522293-19.566879-10.870488-6.522293-2.174098-15.218684-6.522293-23.915074-13.044586-10.870488-4.348195-19.566879-10.870488-30.437368-17.392782-10.870488-8.696391-23.915074-15.218684-34.785562-23.915074l-17.392782-15.218684-19.566879 15.218684c-13.044586 8.696391-28.26327 19.566879-45.656051 32.611465-17.392781 10.870488-30.437367 17.392781-41.307855 21.740977-8.696391 4.348195-19.566879 10.870488-30.437367 15.218683-10.870488 4.348195-15.218684 6.522293-15.218684 6.522293v-15.218683l10.870488-8.696391c8.696391-4.348195 17.392781-10.870488 23.915074-15.218684 8.696391-4.348195 17.392781-13.044586 28.26327-21.740976s19.566879-17.392781 30.437367-28.26327l21.740977-21.740977c4.348195-6.522293 6.522293-8.696391 6.522293-10.870488 0 0-2.174098-4.348195-8.696391-10.870488-6.522293-8.696391-10.870488-15.218684-13.044586-21.740977-4.348195-4.348195-8.696391-13.044586-13.044586-23.915074-4.348195-8.696391-8.696391-19.566879-10.870488-28.26327-2.174098-8.696391-4.348195-17.392781-6.522293-23.915074-2.174098-6.522293-2.174098-13.044586-2.174098-17.392781 0-6.522293-2.174098-10.870488-2.174097-17.392782v-10.870488c0-2.174098-4.348195 0-10.870489 6.522293s-13.044586 13.044586-19.566879 15.218684c-6.522293 4.348195-10.870488 6.522293-15.218683 8.69639l-8.696391 4.348196v-4.348196c0-2.174098 4.348195-8.696391 8.696391-17.392781 4.348195-6.522293 8.696391-17.392781 15.218683-32.611465 6.522293-13.044586 10.870488-26.089172 15.218684-39.133758 4.348195-13.044586 8.696391-26.089172 13.044586-41.307856l6.522293-21.740976 28.26327-2.174098zM1104.441614 417.426752H1152.271762V695.711253h-47.830148zM1189.231423 150.012739h45.65605v26.089172h-45.65605zM1113.138004 206.539278h52.178344v56.526539h-52.178344zM1267.498938 206.539278h52.178344v56.526539h-52.178344zM1089.22293 345.681529h267.414013v39.133758H1089.22293zM1378.377919 176.101911h245.673036v34.785562H1378.377919zM1739.278132 173.927813h376.118896v43.481953H1739.278132zM1787.10828 295.677282h323.940552v43.481954H1787.10828zM1687.099788 428.29724h441.341826v32.611465H1687.099788zM1676.229299 528.305732h463.082803v39.133758H1676.229299zM1628.399151 652.229299h547.872611v43.481954H1628.399151zM1378.377919 319.592357h245.673036v30.437367H1378.377919z" fill="#474443" p-id="12010"></path><path d="M1089.22293 256.543524h267.414013v36.959661H1089.22293zM1089.22293 176.101911h267.414013v34.785562H1089.22293zM1276.195329 417.426752h45.656051V695.711253h-45.656051zM1189.231423 295.677282h47.830148V695.711253h-47.830148zM1378.377919 176.101911h47.830149V695.711253h-47.830149zM1878.420382 176.101911h52.178344v515.261146h-52.178344zM1500.127389 319.592357h43.481953V695.711253h-43.481953zM1687.099788 173.927813h54.352441v271.762208h-54.352441zM2076.26327 173.927813H2130.615711v165.231423h-54.352441zM2365.418259 380.467091h47.830149V695.711253h-47.830149zM2198.012739 302.199575h228.280255v39.133758h-228.280255zM2230.624204 171.753715h171.753715v43.481954h-171.753715zM2445.859873 171.753715h284.806794v43.481954h-284.806794zM2808.934183 171.753715h467.430997v43.481954h-467.430997zM2445.859873 326.11465h284.806794v34.785562h-284.806794zM2445.859873 402.208068h284.806794v34.785563h-284.806794zM2474.123142 532.653928h230.454353v36.95966h-230.454353zM2430.641189 663.099788h315.244161v34.785562h-315.244161zM3176.356688 654.403397h100.008492v43.481953h-100.008492z" fill="#474443" p-id="12011"></path><path d="M2669.791932 176.101911h60.874735v78.267516h-60.874735zM2445.859873 200.016985h54.352441v158.70913h-54.352441zM2567.609342 413.078556h43.481953v256.543525h-43.481953zM2224.101911 380.467091h47.830148V695.711253h-47.830148zM2300.195329 215.235669h43.481953V695.711253h-43.481953zM2808.934183 171.753715h43.481953V695.711253h-43.481953zM3232.883227 171.753715h43.481953V695.711253h-43.481953zM3493.774947 380.467091h45.656051V695.711253h-45.656051zM3322.021231 297.85138h228.280255v43.481953h-228.280255zM3341.58811 380.467091h45.656051V695.711253h-45.656051z" fill="#474443" p-id="12012"></path><path d="M3424.203822 150.012739h43.481953V695.711253h-43.481953zM3691.617834 150.012739h45.656051v86.963906h-45.656051z" fill="#474443" p-id="12013"></path><path d="M3580.738854 213.061571H3848.152866v39.133758h-267.414012z" fill="#474443" p-id="12014"></path><path d="M1080.526539 780.501062h15.218684L1108.789809 847.898089c2.174098 13.044586 4.348195 26.089172 6.522293 41.307856 2.174098-13.044586 6.522293-26.089172 8.696391-41.307856l17.392781-67.397027h13.044586l17.392781 67.397027c2.174098 13.044586 6.522293 26.089172 8.696391 41.307856 2.174098-13.044586 4.348195-26.089172 6.522293-41.307856l13.044586-67.397027h15.218683l-26.089171 123.923566h-17.392782l-17.392781-76.093418c-2.174098-10.870488-4.348195-19.566879-6.522293-28.263269-2.174098 8.696391-4.348195 17.392781-6.522293 28.263269l-17.392781 76.093418h-17.392782l-26.089172-123.923566zM1339.244161 780.501062h15.218684l13.044586 67.397027c2.174098 13.044586 4.348195 26.089172 6.522293 41.307856 2.174098-13.044586 6.522293-26.089172 8.696391-41.307856l17.392781-67.397027h13.044586l17.392781 67.397027c2.174098 13.044586 6.522293 26.089172 8.696391 41.307856 2.174098-13.044586 4.348195-26.089172 6.522293-41.307856l13.044586-67.397027h19.566879l-26.089172 123.923566H1434.904459l-17.392782-76.093418c-2.174098-10.870488-4.348195-19.566879-6.522293-28.263269-2.174098 8.696391-4.348195 17.392781-6.522293 28.263269l-17.392781 76.093418H1369.681529l-30.437368-123.923566zM1597.961783 780.501062h15.218684l13.044586 67.397027c2.174098 13.044586 4.348195 26.089172 6.522293 41.307856 2.174098-13.044586 6.522293-26.089172 8.696391-41.307856l17.392781-67.397027h15.218684l17.392781 67.397027c2.174098 13.044586 6.522293 26.089172 8.696391 41.307856 2.174098-13.044586 4.348195-26.089172 6.522293-41.307856l13.044586-67.397027h15.218683l-26.089172 123.923566h-17.392781l-17.392781-73.91932c-2.174098-10.870488-4.348195-19.566879-6.522293-28.26327-2.174098 8.696391-4.348195 17.392781-6.522293 28.26327l-17.392782 76.093418h-17.392781l-28.26327-126.097664zM1858.853503 895.728238c0-6.522293 4.348195-13.044586 10.870489-13.044586s10.870488 4.348195 10.870488 13.044586c0 6.522293-4.348195 10.870488-10.870488 10.870488-6.522293 2.174098-10.870488-2.174098-10.870489-10.870488zM2043.651805 841.375796l-32.611465-60.874734h17.392781l17.392781 32.611465c2.174098 6.522293 6.522293 10.870488 8.696391 17.392781 2.174098-6.522293 6.522293-13.044586 8.696391-17.392781l17.392781-32.611465h15.218684l-32.611465 60.874734 34.785562 63.048832h-17.392781l-17.392781-34.785562c-2.174098-6.522293-6.522293-13.044586-10.870489-19.566879-4.348195 6.522293-6.522293 13.044586-8.69639 19.566879l-17.392782 34.785562h-15.218683l32.611465-63.048832zM2230.624204 780.501062h15.218683V891.380042h54.352442v13.044586h-69.571125v-123.923566zM2419.770701 843.549894c0-41.307856 23.915074-65.22293 54.352441-65.22293 15.218684 0 26.089172 6.522293 34.785563 15.218684l-8.696391 10.870488c-6.522293-6.522293-15.218684-13.044586-23.915074-13.044586-23.915074 0-39.133758 19.566879-39.133758 50.004246s15.218684 52.178344 39.133758 52.178344c10.870488 0 19.566879-4.348195 28.26327-13.044586l8.69639 10.870488c-8.696391 10.870488-21.740977 17.392781-36.95966 17.392782-32.611465 0-56.526539-23.915074-56.526539-65.22293zM2632.832272 780.501062h15.218683l13.044586 67.397027c2.174098 13.044586 4.348195 26.089172 6.522293 41.307856 2.174098-13.044586 6.522293-26.089172 8.696391-41.307856l17.392781-67.397027h13.044586l17.392782 67.397027c2.174098 13.044586 6.522293 26.089172 8.69639 41.307856 2.174098-13.044586 4.348195-26.089172 6.522293-41.307856l13.044586-67.397027h15.218684l-26.089172 123.923566h-17.392781l-17.392782-76.093418c-2.174098-10.870488-4.348195-19.566879-6.522293-28.263269-2.174098 8.696391-4.348195 17.392781-6.522293 28.263269l-17.392781 76.093418h-17.392781l-26.089172-123.923566zM2926.335456 841.375796l-32.611464-60.874734h17.392781l17.392781 32.611465c2.174098 6.522293 6.522293 10.870488 8.696391 17.392781 2.174098-6.522293 6.522293-13.044586 8.69639-17.392781l17.392782-32.611465h15.218683l-32.611465 60.874734 34.785563 63.048832h-17.392781l-17.392782-34.785562c-2.174098-6.522293-6.522293-13.044586-10.870488-19.566879-4.348195 6.522293-6.522293 13.044586-8.696391 19.566879l-17.392781 34.785562h-17.392781l34.785562-63.048832zM3106.785563 895.728238c0-6.522293 4.348195-13.044586 10.870488-13.044586s10.870488 4.348195 10.870488 13.044586c0 6.522293-4.348195 10.870488-10.870488 10.870488-4.348195 2.174098-10.870488-2.174098-10.870488-10.870488zM3263.320594 843.549894c0-41.307856 23.915074-65.22293 54.352442-65.22293 15.218684 0 26.089172 6.522293 34.785563 15.218684l-8.696391 10.870488c-6.522293-6.522293-15.218684-13.044586-23.915074-13.044586-23.915074 0-39.133758 19.566879-39.133758 50.004246s15.218684 52.178344 39.133758 52.178344c10.870488 0 19.566879-4.348195 28.263269-13.044586l8.696391 10.870488c-8.696391 10.870488-21.740977 17.392781-36.95966 17.392782-32.611465 0-56.526539-23.915074-56.52654-65.22293zM3476.382166 843.549894c0-39.133758 21.740977-65.22293 52.178344-65.22293s52.178344 23.915074 52.178344 65.22293c0 39.133758-21.740977 65.22293-52.178344 65.22293s-52.178344-26.089172-52.178344-65.22293z m89.138004 0c0-30.437367-15.218684-50.004246-36.95966-50.004246s-36.95966 19.566879-36.959661 50.004246 15.218684 52.178344 36.959661 52.178344 36.95966-21.740977 36.95966-52.178344zM3719.881104 780.501062h19.566879l21.740977 67.397027c2.174098 8.696391 6.522293 17.392781 8.69639 26.089172 2.174098-8.696391 6.522293-17.392781 8.696391-26.089172l23.915074-67.397027h19.566879v123.923566h-15.218683v-69.571125c0-10.870488 2.174098-26.089172 2.174097-36.95966l-8.69639 28.26327-23.915075 65.222929h-10.870488l-23.915074-65.222929-8.696391-28.26327c0 10.870488 2.174098 26.089172 2.174098 36.95966v69.571125h-13.044586l-2.174098-123.923566z" fill="#474443" p-id="12015"></path><path d="M369.596603 539.176221v184.798301l-182.624204 78.267516V291.329087l452.212314-210.887473L543.524416 23.915074c-43.481953-26.089172-97.834395-26.089172-143.490446 0L82.615711 206.539278C36.95966 232.62845 8.696391 280.458599 8.696391 332.636943v358.726114c0 52.178344 28.26327 100.008493 73.91932 126.097665l102.18259 58.700637 356.552017-165.231423-171.753715-171.753715z" fill="#0066B5" p-id="12016"></path><path d="M860.942675 206.539278l-102.18259-58.700637-365.248408 169.579618 178.276009 178.276009v-200.016986l182.624204-78.267516v515.261147h-4.348196l-447.864119 208.713376 95.660298 54.352441c43.481953 26.089172 97.834395 26.089172 143.490445 0l317.418259-180.450106c45.656051-26.089172 73.919321-73.919321 73.919321-126.097664V330.462845c0-52.178344-26.089172-100.008493-71.745223-123.923567z" fill="#00A2E9" p-id="12017"></path></svg>